<?xml version="1.0" encoding="UTF-8" standalone="no"?>
<svg
   xmlns:dc="http://purl.org/dc/elements/1.1/"
   xmlns:cc="http://creativecommons.org/ns#"
   xmlns:rdf="http://www.w3.org/1999/02/22-rdf-syntax-ns#"
   xmlns:svg="http://www.w3.org/2000/svg"
   xmlns="http://www.w3.org/2000/svg"
   xmlns:sodipodi="http://sodipodi.sourceforge.net/DTD/sodipodi-0.dtd"
   xmlns:inkscape="http://www.inkscape.org/namespaces/inkscape"
   width="817.80542"
   height="800"
   viewBox="0 0 408.90271 400"
   id="svg2"
   version="1.1"
   inkscape:version="0.91 r13725"
   sodipodi:docname="Flag_of_Åland (2).svg">
  <metadata
     id="metadata22">
    <rdf:RDF>
      <cc:Work
         rdf:about="">
        <dc:format>image/svg+xml</dc:format>
        <dc:type
           rdf:resource="http://purl.org/dc/dcmitype/StillImage" />
        <dc:title></dc:title>
      </cc:Work>
    </rdf:RDF>
  </metadata>
  <defs
     id="defs20" />
  <sodipodi:namedview
     pagecolor="#000000"
     bordercolor="#000000"
     borderopacity="1"
     objecttolerance="10"
     gridtolerance="10"
     guidetolerance="10"
     inkscape:pageopacity="0"
     inkscape:pageshadow="2"
     inkscape:window-width="1600"
     inkscape:window-height="837"
     id="namedview18"
     showgrid="false"
     inkscape:zoom="1.1479719"
     inkscape:cx="213.49311"
     inkscape:cy="405.05364"
     inkscape:window-x="-8"
     inkscape:window-y="-8"
     inkscape:window-maximized="1"
     inkscape:current-layer="svg2"
     fit-margin-top="0"
     fit-margin-left="0"
     fit-margin-right="0"
     fit-margin-bottom="0" />
  <g
     id="g4187"
     transform="matrix(1.8181818,0,0,1.8181818,-52.727272,45.454545)">
    <path
       transform="scale(0.5,0.5)"
       id="rect8"
       d="m 235.1582,77.554688 -1.30664,2.230468 1.77149,2.71875 1.98437,-1.984375 0.89453,0.275391 -0.66211,4.628906 1.79493,4.621094 1.52539,-1.105469 0.50976,-1.416015 -1.36719,-8.195313 -5.14453,-1.773437 z m 11.26953,0.160156 -1.73632,1.904297 -1.33594,-0.488282 -0.14649,6.207032 3.05274,0.753906 1.75781,2.849609 1.24219,-5.625 -0.36328,-3.84375 -2.47071,-1.757812 z m -73.42968,7.347656 -1.82422,0.652344 -1.09571,-0.566406 -1.11328,6.720703 0.37891,3.851562 1.89648,0.697266 1.1543,-0.892578 0.79297,-5.021485 1.19922,-2.390625 -0.18164,-2.46289 -1.20703,-0.587891 z m 8.68359,5.396484 -3.9668,5.1875 -0.73437,3.408204 -2.12891,-2.746094 -1.02539,2.941406 -2.0332,0.509766 -0.68359,1.917964 2.04882,3.42188 1.36524,-0.73438 0.18164,5.57422 1.20703,0.60157 1.51172,-5.04883 2.49219,-2.59375 -0.23243,-6.119143 2.55079,-3 -0.55274,-3.320313 z m -1.76562,12.439456 -0.18946,5.78906 2.20899,1.02539 0.14453,0.42188 1.11914,3.22656 0.5664,1.62695 -1.96093,0.92969 -2.36133,-0.6543 -3.29883,7.62891 6.83008,0.0937 1.52539,-2.19336 2.45703,-0.16797 0.19531,1.38672 -2.20898,1.01172 2.98633,10.47656 2.22461,-0.19727 0.54492,1.30079 -1.36719,1.82421 0.67578,2.26563 -0.76953,1.64258 0.30469,3.42383 1.69922,1.35156 0.7207,1.87305 0.0371,-0.0723 0,-54.013672 -1.05469,-0.06445 -1.68554,7.593742 -2.48438,-4.73046 -0.73437,-3.763672 -1.04688,1.060547 0.55274,2.652343 0.57421,2.789063 -1.93359,-0.419922 -4.27148,4.882811 z m 48.94336,-3.189456 -0.56641,0.640626 -0.29297,0.33008 0,3.01367 0.29297,-0.39453 1.41601,-1.96289 -0.8496,-1.626956 z m 27.71289,0.617186 -1.27149,3.84375 -2.97266,0.625 -2.44921,2.99414 4.20703,4.72266 2.03515,-0.48633 5.19532,-6.61133 -0.97461,-4.60742 -3.76953,-0.48047 z M 228,105.41406 l 0,8.83789 0.0606,0.1211 0.23242,0.11523 1.04492,0.58789 -0.4707,-3.45898 1.06054,-2.11328 -1.63476,-3.47461 L 228,105.41406 Z m -68.2832,0.47071 -0.26953,2.39843 -1.41602,2.20899 -0.0234,3.39258 1.55469,1.57617 0.44336,5.34765 5.2832,-5.68945 -1.31445,-3.71289 1.66992,-2.44141 -0.83594,-1.89648 -5.09179,-1.18359 z m 82.32226,0.39257 -2.33203,0.0371 -2.60156,1.4668 -0.43555,1.69336 1.38086,2.12109 1.11133,0.45118 1.65039,-1.23438 3.30469,3.50195 1.35156,-2.62304 -0.8418,-3.64844 -2.15039,0.47265 -0.4375,-2.23046 0,-0.008 z M 262,108.78906 l -4.38281,5.3711 0.95312,2.74023 2.20899,-0.0664 1.2207,-1.72851 0,-6.31641 z m -87.28711,4.13477 -2.69531,2.29687 1.44531,1.56055 0.98828,4.62891 0.69727,-5.1875 -0.43555,-3.29883 z m 63.74805,2.10351 -2.79688,2.11328 1.06641,4.78126 2.92969,3.72656 0.15234,1.38867 0.13086,1.2207 -1.28711,3.04492 -0.56641,-1.15625 -1.875,-3.82812 -3.49414,-4.82617 -0.50195,-0.68164 -3.63281,-2.74024 -0.29102,0.0371 L 228,118.12891 228,152 l 8.9043,0 -0.61719,-0.37695 0.45117,-0.86524 4.27344,0.13086 2.32422,0.91406 0.0723,0.19727 38.27344,0 2.21289,-3.83203 -1.10351,-3.4375 0.17382,-2.41211 -3.40039,1.2207 -0.57422,-6.87304 -2.94921,-2.50782 -1.03907,0.92383 1.64258,3.77735 -2.76172,0.77148 -0.64648,-3.35742 -1.62891,0.0371 -0.17383,-2.46289 -2.78906,-2.88477 -0.56836,1.79492 4.3086,13.69531 0.13085,1.78126 -0.61718,0.55078 -0.41406,0.3789 -2.55079,-6.93164 -2.10742,-2.76953 -2.28125,-1.31445 -0.34765,-0.9961 0.5664,-0.86328 1.73633,-0.94531 -0.29688,-1.40234 -0.79296,-1.20703 -2.33204,1.11328 -0.99609,-0.42969 -0.67578,-1.18359 -0.22461,-3.96094 -1.74414,-0.95899 -0.26758,4.2793 -2.1289,2.23828 -1.19922,3.32031 -1.5918,-3.22656 3.75,-8.20898 2.97852,-0.60352 1.5332,-1.23437 -0.3418,-1.01758 -3.50976,-1.77344 -2.45508,-2.83398 -0.21094,-0.0371 -2.5293,-0.38477 -1.48828,0.82813 -1.12695,3.42187 -1.58399,4.81836 -1.08203,0.36328 -0.24804,-3.82812 0.13086,-0.3418 0.69726,-1.82422 -0.51562,-1.5625 -1.6211,-0.94336 -2.13476,4.26367 -2.1875,-2.12109 -1.16992,0.0996 -2.25977,-2.52148 -0.41406,-3.45704 z m -68.34766,1.65235 -5.79687,5.05859 -1.11914,5.7832 1.0957,1.65625 2.44922,-4.21484 4.25,-2.73828 1.28711,-3.18359 -0.91602,-2.17969 -1.25,-0.18164 z M 153.71875,118 l -0.32422,1.79688 0.35547,3.03124 2.38477,2.53516 1.63476,-0.0371 0.60938,-2.32422 -0.55274,-4.41797 -0.20508,-0.58398 -3.90234,0 z m 291.01367,0 -0.18945,0.10547 -0.39258,2.09961 1.43164,4.30078 0.95899,0.71289 2.0625,9.30664 0.87304,0.43555 -0.0879,-13.8418 -1.40234,-2.69531 -0.71485,-0.42383 -2.53906,0 z m 12.26172,0 -0.006,0.082 1.46094,1.35938 2.79687,-0.0742 0.87305,-1.33008 -0.01,-0.0371 -5.11524,0 z m 16.55859,0 0.16993,2.07422 2.16406,3.0957 1.37305,-2.60937 -1.35743,-2.56055 -2.34961,0 z m 27.19727,0 0.98242,3.23047 0.6836,-0.82813 L 502.2793,118 500.75,118 Z m -4.50391,0.47461 -1.28515,0.0371 -0.87891,2.50781 0.24609,2.25977 2.08594,4.16992 -0.51562,2.58008 3.68359,6.82226 3.50195,-1.46875 0.42188,-1.03906 -5.13086,-6.37109 1.70117,-1.72852 -2.24609,-3.04492 1.46094,-1.82422 -3.04493,-2.88477 0,-0.0156 z m -361.44531,1.61328 -4.65039,3.22656 -0.9082,1.88867 -4.03125,2.9004 -0.67578,9.24218 2.83984,1.64063 1.11133,6.66406 0.98242,-2.55859 -0.13867,-7.20118 2.89844,-9.42968 3.31445,-4.77344 -0.74219,-1.59961 z m 291.17578,1.30859 -1.80078,0.3711 -1.69336,2.41211 -2.33203,0.95898 -3.10351,3.40821 -1.53907,3.92382 -1.8164,8.90821 0.625,7.54882 0.2539,3.07227 2.10547,0 3.21289,-4.54102 2.42774,-0.79882 3.48047,-4.54102 2.89843,-10.08594 -0.16015,-4.23437 -2.5586,-6.40235 z m -114.04492,1.9668 0,0.002 -1.17773,3.0586 -5.10157,3.77929 -1.37304,3.69727 0.53125,7.14258 1.71484,1.2207 1.44531,-2.3457 1.48242,2.15039 1.41016,-0.18359 1.26367,-3.71289 1.22071,-8.20899 -0.26954,-2.60937 1.08985,-2.26758 -1.00195,-1.38086 -1.23438,-0.3418 z m -132.48828,1.10547 -2.17188,14.01758 0.52149,1.57617 2.75391,2.31836 1.72265,0.12891 0.64063,-1.53321 -0.41602,-2.49218 1.89063,-3.35547 -3.23438,-3.21289 0.21094,-1.87305 2.06445,-2.7832 -0.58984,-1.04688 -3.39258,-1.74414 z m 118.79883,0.7207 -0.35547,2.93555 -1.49024,1.79492 1.16211,1.93164 1.78711,-0.37109 0.41407,-4.41797 -1.51758,-1.87305 z m -126.57422,0.25977 -3.63867,1.46094 0.15234,2.72461 3.07227,-0.47266 2.23047,0.75586 1.875,-3.23438 -2.60157,0.40821 -1.08984,-1.64258 z m 289.01953,0.0664 1.40234,5.40626 1.2793,0.90039 2.16406,-3.27539 -0.26172,-1.54883 -4.58398,-1.48243 z m -144.28711,1.29883 0,0.002 -0.98828,1.45312 0.66797,3.0957 -1.98438,1.99024 2.58008,4.60742 6.0957,2.36133 0.6836,-0.82813 1.42383,0.76368 0.66211,-0.69922 0.83398,-8.79883 -1.16211,-0.0664 -1.47461,2.60742 -1.77344,-4.49609 -5.56445,-1.99219 z m 141.35156,4.43555 -1.57617,2.29492 -0.0234,2.84766 0.33985,0.99609 1.89648,0.625 -1.03125,4.41016 2.26758,6.77929 0.20703,2.79688 4.96485,0 0.0742,-0.23828 -0.29882,-10.36133 -2.33985,-1.64258 -2.1289,-3.34179 -0.28321,-4.1211 -2.06836,-1.04492 z m -305.12695,1.69141 -2.29688,2.90625 0.45118,4.24414 2.17187,3.3125 0.47266,-3.18164 1.49609,-1.91797 -0.1582,-2.74024 -2.13672,-2.62304 z m 176.41797,0.70507 -1.44727,3.26954 0.91602,3.00195 -0.34766,2.91992 4.05274,-1.89648 3.60547,-4.81641 -3.03711,-1.73047 -1.9336,0.64063 -1.80859,-1.38868 z m 9.64062,4.70899 -3.16015,5.98047 0.95898,2.58594 1.44531,-2.33204 0.75,0.53711 0.44922,-0.8789 -0.55078,-2.11524 1.26367,-1.82226 -1.15625,-1.95508 z m 139.17969,1.11914 -0.50781,0.23047 -1.33789,3.14648 -3.04297,-1.61328 -0.83008,1.88867 0.9375,3.55274 -1.48828,1.64258 0.87109,3.125 -0.004,0.55273 5.40234,0 0,-2.11523 -0.45703,-0.68165 -0.10937,-3.68554 0.5664,-0.69727 0,-5.3457 z m -307.3418,0.25586 -3.37304,1.11133 0.58984,4.02539 1.83789,1.2207 0.20313,1.25781 -2.0918,4.6543 7.6875,0 -0.39258,-8.60156 -0.91601,-0.12891 -0.67579,3.9375 -1.11132,-0.43555 -0.9375,-6.0957 -0.82032,-0.94531 z m -10.29687,2.89062 -0.84961,2.44141 -1.60547,-0.11523 -1.62109,0.98046 -0.42774,2.77539 -1.72265,1.9043 4.51953,-0.93164 3.52344,0.53906 -0.73438,-6.875 -1.08203,-0.71875 z m 19.17578,2.66602 -0.81445,0.0371 -2.31446,6.67578 6.07032,0 1.0039,-1.62695 -0.64062,-1.46875 -1.41602,0.19726 -0.8789,1.61328 -0.72657,-0.78515 -0.2832,-4.64258 z m 10.01953,4.68555 -1.29297,0.21289 -0.80078,1.81445 2.53516,0 0.18945,-0.43359 -0.63086,-1.5918 0,-0.002 z m -53.20117,1.16992 0.0957,0.85742 0.62891,0 -0.72461,-0.85742 z m 206.13477,0 -1.94727,0.76367 -0.0762,0.0937 2.22851,0 -0.20507,-0.85547 0,-0.002 z M 100.32422,188 l -1.728517,4.39648 1.111328,2.47071 -1.039062,2.13476 2.048831,0.3125 1.55468,-2.60742 0.98243,-6.70703 -2.92969,0 z m 5.37305,0 -0.61329,1.03125 -0.64648,3.83789 0.55859,2.24414 -1.41015,3.4375 0.77734,1.33594 1.19922,-0.35742 1.74414,-2.31641 -0.17383,-3.66211 2.63086,-3.94531 1.17578,7.21484 1.78711,0.54492 1.19922,1.65625 0.47266,-1.14062 -1.95508,-6.38672 -0.0566,-2.57226 -0.83008,-0.92188 -5.85937,0 z m 8.85156,0 0.99023,4.40039 1.35156,5.99414 -2.66015,4.19922 0.26953,2.87109 1.59766,1.19141 0.21093,2.32422 -2.9414,2.30469 -1.19141,0.5957 -1.55664,2.60742 0.0352,7.51172 16.89062,0 -0.76562,-2.23438 0.76367,-3.80664 -0.45117,-2.55859 -0.9668,-5.49219 0.95312,-1.35156 3.40626,7.35938 0.3125,2.95117 2.03515,5.13281 0.67774,0 1.42968,-0.86133 0.52344,0.48633 -0.0293,0.375 14.38672,0 -0.16797,-5.09766 0.42188,-2.10742 -0.55274,-4.16992 -0.18945,-1.39453 -1.10351,0.44922 -1.22852,3.0957 -0.87109,-1.57617 0.49414,-5.2168 0.42773,-4.51172 -2.45508,-2.80468 -1.45312,-3.59766 0.67578,-1.91797 -0.9375,-3 1.0293,-2.15039 -29.36133,0 z m 32.63086,0 2.90234,7.04883 0.76953,4.44726 4.94141,6.45118 0.21094,2.32617 -0.38477,1.20508 -0.0137,0.0371 -2.53711,7.93555 0.97656,4.54883 3.95508,0 0,19.42773 0.76562,2.03516 -0.15234,2.41992 1.43164,1.57617 0.63867,6.72852 3.23438,0.89258 0.74805,1.61328 -1.15625,2.12305 0.74804,3.63281 -0.76953,2.7168 0.85742,3.65429 3.625,7.73828 0.21875,3.14649 3.07422,2.36133 4.46875,-0.78516 2.59961,-7.85352 3.57617,-1.07617 0.55078,-0.39258 2.71094,-1.93945 1.43164,0.64063 0.13867,1.77148 -1.5625,2.59375 -1.75781,1.35156 1.06641,5.84961 3.27734,0.51563 1.24219,2.22461 1.2207,0.4707 1.42383,-2.49219 0,-2.01953 0.34961,-0.0352 0,-87.89843 -1.04102,-0.56641 -0.98046,0.52344 -1.27149,2.91406 -1.31445,-0.61719 -0.30274,-7.24609 -3.125,0 0.52149,1.25 -1.40235,2.2168 1.37305,3.18945 -1.94726,1.85937 -0.50196,5.47071 2.47852,0.52344 3.56055,-1.74415 1.18359,0.7129 -3.77735,6.86718 -0.0215,5.27344 1.23438,0.93164 2.17187,1.62695 -0.71875,1.23438 -2.98633,-0.18945 -1.01758,1.875 -2.64453,-0.6543 -0.008,0 -0.37695,-0.0879 -1.07617,-5 -0.50782,-2.42578 -2.16601,-2.36133 2.32617,-2.2168 -0.91602,-6.21875 0.79102,-2.85742 -1.52539,-7.00391 -0.83594,0.2754 -0.34766,3.0664 -1.03906,-0.0371 -1.86133,-3.9375 L 173.69922,188 147.17969,188 Z M 228,188 l 0,35.05859 0.29492,0.6836 1.16992,2.72461 1.98438,1.80273 2.45508,-4.19922 -1.29297,-3.86523 -0.10938,-5.0293 2.51367,-4.74414 0.17579,-3.48828 2.09179,-4.13477 2.11524,-1.28515 -2.58789,-2.85547 -1.48243,-1.61328 -2.2871,-2.50586 -0.3418,-1.15625 -1.39649,-4.81055 L 231.00586,188 228,188 Z m 9.60938,0 -0.41993,7.46289 -0.0371,0.57227 3.17578,2.54492 2.08399,2.89062 0.50977,3.60352 -2.73243,6.59766 0.18946,1.38867 1.57617,1.33593 0.79883,4.05469 2.31054,2.00586 1.01758,-1.35156 1.22852,-2.30274 1.45312,-3.72851 2.52149,-6.38672 -0.53125,-3.33398 0.39257,-2.38477 0.91602,-0.92969 0.48633,0.32813 0.58789,0.39258 -0.12305,0.34179 -0.38476,1.06055 0.61718,3.61914 -1.38086,8.85742 -1.55468,0.42774 -3.20313,5.4707 2.14258,1.66406 1.14844,3.97461 3.73437,1.67969 3.71289,-2.10156 2.73242,-4.58399 1.56836,0.40039 0.0762,0.42969 17.02539,0 0.33789,-0.32227 -0.83594,-1.75781 3.17578,-3.4082 0.44922,3.05273 2.28906,2.12891 0.60352,-0.27539 0.49414,-0.21094 1.64258,-4.07617 1.38672,-0.0449 0.46484,-1.96289 6.85937,2.60937 2.15039,-1.52539 2.60157,-7.30273 -3.29102,-3.38672 -2.92773,3.17578 -1.54102,0.29102 -2.63086,-1.23633 -1.33594,1.5332 -1.05273,-0.84961 0.14453,-4.17187 -3.83008,-8.61719 0.24024,-4.02539 4.0918,2.57226 0.82812,0.81446 -0.19727,2.39843 -0.0801,0.94336 1.46875,1.32227 1.09765,-3.48633 2.88477,-1.82422 0.57226,-1.93945 L 294,188 l -56.39062,0 z m 65.5957,0 -1.30078,3.4668 1.14062,2.08398 2.02735,0.46484 0.60351,-5.98632 -0.008,-0.0293 -2.46289,0 z m 4.86133,0 0.0859,0.56836 0.10352,-0.56836 -0.18945,0 z m 3.36132,0 -0.1289,0.40625 0.45703,2.93555 -0.84961,2.29687 2.87695,4.9336 -2.04882,1.69335 0.53124,1.30665 1.35157,1.3164 4.49609,-3.74219 0.26172,-0.21289 6.38086,-2.07031 0.9082,2.05664 -1.27929,1.00196 -2.28125,-0.23829 -1.5254,2.04883 0.0566,1.50391 1.10546,1.40234 1.85938,0.84375 0.0664,1.36524 -1.69336,2.55859 1.33007,3.3418 -1.70117,2.57226 1.74414,6.64844 4.31641,-3.20508 2.49219,-6.22656 -2.92188,-1.70703 0.32813,-0.77149 3.24023,-0.94336 3.98828,-7.20117 0.88672,-2.55664 -0.39844,-2.36914 2.17969,-0.85742 0.33985,-0.89453 -1.00196,-3.14649 1.01758,-1.72851 -3.41406,-2.36133 -22.97071,0 z m 95.20508,0 -0.67383,1.13477 0.54493,6.72656 3.27148,-2.96289 -0.78516,-2.98047 -1.29687,-1.91797 -1.06055,0 z m 11.61719,0 -0.45508,1.94141 3.69922,6.46679 1.02344,4.78711 2.8125,1.58399 3.86523,0.51562 1.29297,1.73047 1.71484,-2.55859 0.0586,-2.29492 -1.48242,-2.01954 -2.70899,0.3418 -0.82226,-5.41992 1.5625,-1.35938 1.28515,3.60352 2.83399,0.50195 1.67969,-2.29687 2.47656,-0.3711 0.6914,-1.78125 2.49219,0.42969 0.5,-1.27148 L 439.91406,188 418.25,188 Z m 24.00195,0 -0.50781,0.38477 0.92969,5.45703 1.67187,4.2207 1.62696,0.83008 -0.58789,-2.68946 0.84375,-2.01953 -0.14258,-6.18359 -3.83399,0 z m 34.875,0 -0.25781,0.42969 0.5957,2.56445 0.39844,0.81445 0,-3.80859 -0.73633,0 z m -63.84961,0.0742 -1.91796,1.43164 0.0508,8.82031 -0.9961,3.35742 1.03906,4.65625 1.07618,0.58204 4.51172,-4.51172 -2.67383,-5.47266 -1.08985,-8.86328 z m 21.70313,7.94922 -1.20703,2.23828 0.94531,6.26953 0.95898,0.70508 3.56055,-4.40235 -0.47266,-1.71679 -2.60156,0.3789 -1.18359,-3.47265 z m -34.93555,3.34179 -0.95117,0.2461 -3.26172,6.62695 0.55078,3.08008 -2.07031,3.56641 0.16602,4.23632 1.54101,0.66993 0.71875,2.55664 1.92578,-1.5625 0.73438,0.66796 -0.46289,2.54688 8.70703,0 1.19531,-4.04297 -2.40625,-2.98633 -0.45703,-2.80468 0.74805,-2.31055 -1.00196,-3.95313 -3.125,-2.83984 -1.60547,0.79883 -0.94531,-4.4961 z m -91.09375,5.71875 -3.71875,0.21094 -2.40625,4.61524 -1.26367,4.80273 -2.30273,2.86914 -0.24024,2.95117 -0.86523,1.4668 2.96093,0 0.86133,-2.07227 3.34961,-0.94335 1.35938,1.16796 4.23437,-5.39062 -1.91015,-2.47656 -0.24024,-2.75391 0.68359,-1.91992 -0.50195,-2.52735 z M 59.365234,208.09961 58.3125,210.38086 58,215.48047 l 0.501953,0.73437 1.068359,-0.24609 1.015626,-5.25977 2.791015,2.03321 0.138672,-2.41211 -4.150391,-2.23047 z m 358.539066,0.29687 -4.24219,0.63282 -1.86719,2.92773 1.03906,0.84961 5.4336,-2.7168 -0.36133,-1.69336 -0.002,0 z m -354.361331,9.2129 0.05078,1.63476 1.193359,2.75586 1.392579,0 0.707031,-3.34375 -3.34375,-1.04687 z m 383.992191,0 -0.32618,3.47265 0.29297,0.91797 2.17969,0 -2.14648,-4.39062 z m -128.46094,4.30859 -0.0156,0.082 0.17579,0 -0.16016,-0.082 z m -78.03516,3.2832 -2.20898,0.1836 -1.17774,1.16992 -0.13672,3.22461 -1.2871,0.0684 -0.70508,-1.875 -0.93555,0.11523 -0.63281,2.20899 -0.33399,1.1621 1.51172,3.89454 -1.05469,4.15625 -2.52148,-4.19141 -2.78906,-1.79688 -0.47266,-4.14843 L 228,228.7207 l 0,44.0586 0.29297,0.55273 1.16992,2.17969 2.04102,-0.74805 1.96875,4.67188 0.11718,0.26757 -1.10546,4.55469 -3.37891,2.29688 -0.8125,-0.13086 -0.29297,-0.0449 0,9.35742 0.29297,0.1582 1.49609,0.78516 1.06055,1.79492 1.76562,-0.39258 2.69532,-2.41211 0.98828,4.35156 1.14062,1.11914 0.0801,3.27735 2.70313,4.49609 1.01757,3.125 1.25782,1.03125 1.40234,-3.16015 2.43359,2.82031 0.95118,-0.24609 0.98828,-2.5586 0.48633,-0.3125 1.375,-0.8789 2.9707,0.2207 0.92969,3.80664 1.46093,1.32226 1.72266,3.92383 3.61133,2.62305 -1.06055,5.09961 0.30469,2.36328 1.67773,2.30273 -0.48633,3.3711 0.52344,1.5625 0.21094,0.63476 0,-54.88281 -3.32617,-4.16406 -2.89258,-0.87891 -0.3125,-0.23828 -2.64453,-2.13672 -1.58984,-0.11523 -0.58204,0.99609 1.09766,3.42188 -0.81445,1.08984 0.60937,2.67383 -0.86328,3.51758 -3.35742,-4.88282 -0.95899,1.33594 0.9961,4.35938 -0.34961,1.0332 -2.41992,0 3.84375,5.8125 0.46484,0.70508 0.19727,1.25586 -0.50196,1.02539 -0.85742,1.72851 -0.34766,-1.03125 -1.5332,-4.55664 -2.1875,-1.97656 -1.54883,0.42969 -1.65625,-1.6211 -1.56836,-5.25976 -2.00586,-3.89453 -0.72656,-1.41602 0.33399,-0.66211 0.40625,-0.83593 1.79492,1.49804 2.88476,-1.02539 0.32813,-1.83789 1.83789,-0.58789 -1.19141,-2.96484 1.48243,-3.96094 -1.43164,-5.50781 -3.13868,1.25781 -1.3457,-0.36524 -1.40234,-2.7832 -0.36328,-8.86328 0.61132,-1.25781 2.25977,0.36523 2.74609,-6.74219 -0.30468,-1.40234 -3.26368,-0.6543 -0.91406,-1.08984 3.68945,-1.99023 -1.33593,-4.41797 1.86718,-2.91407 0.59571,-3.32031 -1.27149,-3.03125 z M 228,279.50977 l 0,0.82421 0.13281,-0.29687 L 228,279.50977 Z m 3.76562,41.96289 -1.90429,0.50781 -1.56836,4.54101 -0.29297,0.83985 0,1.77148 0.29297,0.11524 6.71289,2.70312 2.77539,-4.90625 -0.6543,-1.32226 -1.25586,-1.02344 -0.58789,-1.83789 -3.51758,-1.38867 z m 11.10157,2.33203 -3.23242,0.14453 -0.47266,1.15625 1.06836,3.68359 -1.23438,1.69336 2.375,2.28125 1.11914,-2.66015 0.37696,-6.29883 z"
       style="fill:#000000"
       inkscape:connector-curvature="0" />
    <path
       id="rect14"
       transform="scale(0.5,0.5)"
       d="m 201.02344,86.003906 -3.59766,0.931641 -1.8457,4.984375 -1.75,1.089844 -2.88477,-0.175782 L 190,97.09375 l 0,36.22266 0.1543,-0.0137 0.54492,1.30079 -0.69922,0.93359 0,3.13086 0.008,0.0254 -0.008,0.0176 0,5.41211 1.24219,0.98828 0.7207,1.87305 1.03906,-1.99805 1.45313,-0.58789 0.0801,0 1.93945,0.57422 0.49414,-0.28321 0.99609,-0.5664 3.40039,-6.37305 1.25586,-9.00977 1.83203,-1.74414 -0.14648,12.41797 0.97461,0.56641 2.2168,-3.17578 0.95117,0.83008 -1.62695,4.07617 3.92968,4.13281 0.45899,2.10742 -1.75196,1.07617 -1.85351,-3.00195 -0.60938,2.2168 -2.40429,0.82812 -0.0586,3.52344 1.75,0.94531 0.10157,2.04883 -0.3125,1.94141 -0.29688,1.85937 -1.46875,9.27149 0.80664,3.10937 -2.54297,7.0332 -1.02343,0.92969 -4.25,-1.35156 -1.14844,0.9082 -0.29883,2.66016 2.09375,6.00781 -2.79883,1.19336 0.2832,2.59375 0.56836,5.11524 -1.35937,0.8789 -1.34375,-3.01562 -0.5957,-1.35157 -1.73829,-0.94531 -0.95898,0.51172 0,92.41211 0.22656,0.0879 1.42383,-2.49219 0,-2.01953 1.62891,-0.16601 2.82617,1.5332 1.88086,-0.37891 0.98828,-1.61328 -0.53711,-2.375 -2.63086,-2.1875 -0.65234,-1.31445 0.36914,-1.28711 2.07812,0.99609 1.81055,-1.74414 1.78711,1.4961 1.14844,-4.00977 1.38672,-0.0527 1.65624,-1.36524 2.08594,-3.18945 0.83594,2.39062 0.20312,0.61719 -2.38281,2.74609 -0.2832,2.52149 -4.39649,4.16992 -0.0664,1.61328 1.27148,1.96875 3.32032,0.2461 3.00976,2.7832 0.98828,-2.5586 -0.0449,-7.72265 0.84961,-4.33008 0.98242,0.41992 0.17383,2.1875 0.18164,2.36133 0.63281,7.93555 0.0488,0.19726 2.44141,9.27149 3.27148,7.68554 0.15235,-0.21093 2.54882,-3.42188 -1.30664,-5.625 -0.36328,-5.87695 -0.39258,-0.9961 -1.65625,-4.20703 -0.88671,-6.36523 0.0801,-0.11524 1.06055,-1.72851 3.66992,-0.9082 1.42969,0.63086 1.86719,3.8164 0.84375,6.63281 1.49023,1.05274 1.08203,-2.41211 -1.73633,-6.90234 1.16993,-1.17579 0.72656,1.37305 1.16992,2.17969 0.53711,-0.19727 0,-40.99804 -1.23242,-0.79493 -0.47266,-4.14843 -1.17773,-2.60743 -3.26953,-0.65429 -1.37305,-1.16992 -1.59766,-3.69727 -0.4082,-0.94531 -0.10156,-0.0371 -1.03907,-0.32813 -3.86523,-1.24218 -1.9043,-2.60157 -0.51562,-2.52734 1.04687,-4.02734 -1.64843,-2.83204 -0.51758,-11.58203 0.87305,-4.59961 2.51367,2.28125 -0.92383,2.01954 0.0293,4.74414 1.5625,7.55664 2.4121,-1.91797 2.5293,-5.84766 0.11524,-0.26172 0.0371,-0.0996 0.19726,0 0.97266,-0.0684 0.45117,2.10157 -1.61328,3.76367 -0.32031,0.7832 -0.12305,0.27539 -5.66797,7.08594 0.37891,1.67773 5.09961,2.79102 0.0742,0.0508 2.10547,1.15625 2.35547,3.63281 1.21289,-1.43945 1.08203,0.57422 1.01758,2.36133 1.16992,2.72461 L 230,226.95312 230,190 l 1.71484,0 -0.41211,-1.41797 -2.54296,-4.99805 -0.46485,-0.5371 -4.33789,-4.97071 -1.14062,-9.23437 2.67382,-8.11719 0.9375,0.95898 0.50196,4.67969 -1.54688,4.36719 2.91211,6.19141 0.52344,1.11718 5.8418,7.95703 0.45898,0.61719 1.14063,-1.83789 2.79687,-10.12109 -0.34961,-0.9961 -1.50976,0.0371 -1.38086,1.95508 -2.00586,-0.73437 -0.18164,-3.40821 -1.60547,-2.15039 1.03906,-0.92969 2.23047,1.71485 1.85156,0.0371 1.40235,-1.12696 0.57421,-1.94726 -0.36328,-3.84961 2.40625,-2.73242 -2.17383,-7.25196 -2.70312,-1.64843 0.45117,-0.86524 4.27344,0.13086 2.32422,0.91406 2.11523,5.75586 0.10742,0.92969 0.24805,1.96875 -1.83789,2.82031 -1.77344,7.29493 0.90821,2.78906 0.0293,0.0781 -0.34961,1.02539 -0.15234,0 -0.99609,-0.0527 -0.33399,1.8457 -3.37109,6.08985 -0.13086,2.28125 -0.30274,5.37109 57.09571,0 -1.26563,-4.27539 0.61719,-1.25586 -0.36328,-2.76953 2.13672,-7.23633 4.44531,-4.28711 -2.4043,-2.14258 -2.4707,1.21289 -4.82422,-4.16406 -5.02734,-1.63476 -0.0508,-2.44141 -1.9043,-1.5332 -0.71094,-2.81836 -1.8457,1.85937 0.0937,2.17969 -2.73828,1.59961 -0.51758,6.26953 -1.25586,0.87891 -0.64063,-5.37696 1.01758,-3.75586 1.29297,-2.23828 L 282.83594,150 230,150 l 0,-30.86328 -1.41406,-1.06641 -0.29102,0.0371 -3.22656,0.22852 -4.49024,1.72851 -1.1914,-1.80859 -2.47656,5.41992 -1.46875,1.67774 0.21093,1.11328 -0.72656,0.28906 -0.98047,-1.49609 1.93946,-5.79883 -0.58008,-1.99024 -2.5293,-1.20703 -0.0449,-1.62695 1.81641,-0.66797 2.19531,-3.97461 4.13476,-3.55273 0.92969,-2.02149 -0.95117,-2.84765 -1.91211,1.44531 -1.49024,-2.11328 -1.29296,0.0664 -0.73243,5.02735 -0.38671,2.64648 -3.08008,-7.5293 1.08203,-2.39648 -0.36328,-5.878906 -1.5625,0.435547 -1.22657,-4.394532 -8.86523,-2.871093 -0.002,-0.0059 z m 27.83594,13.705078 -0.56641,0.640626 -3.85156,4.34375 0.14453,2.74023 3.47461,6.93946 0.23242,0.11523 1.04492,0.58789 -0.4707,-3.45898 1.06054,-2.11328 -1.63476,-3.47461 -0.79297,-1.66407 0.79297,-1.0664 1.41601,-1.96289 -0.8496,-1.626956 z m -8.25391,12.103516 -1.2793,1.95508 2.64453,3.27734 1.8086,-1.61328 1.36718,0.21094 0.41407,-1.5625 -0.82813,-1.89649 -4.12695,-0.37109 z m -21.04297,34.60742 -4.79492,1.41797 -0.008,0 0.19531,3.40039 -2.33985,2.21484 4.70899,3.44532 0.74805,2.53515 1.48242,1.19141 -1.26367,3.98828 -1.71485,0.81445 1.35156,2.38282 3.29102,-2.46289 2.59375,-4.46094 -1.22852,-3.44336 -3.05078,-3.72852 -0.16797,-1.08984 -0.35546,-2.375 1.52539,-3.27734 -0.97266,-0.55274 z M 154.54688,150 l -0.54883,0.60742 2.94726,-0.60742 -2.39843,0 z m 6.08984,0 1.4043,0.21484 -0.0234,-0.21484 -1.38086,0 z m 7.94922,0 -1.13086,2.51758 0.0215,3.93164 1.11914,2.11523 1.58399,-1.41797 4.57031,6.37305 0.33398,0.47266 -0.55273,0.0508 -2.83984,0.22656 -0.46485,-1.95312 -2.14453,-1.54883 -0.57422,1.9414 0.98828,6.64844 -0.76953,2.41211 -0.47265,1.44531 -0.79883,-0.22265 -0.32617,-0.082 -0.91016,-2.17383 -1.90234,-0.55078 -0.98829,-1.51172 0.94336,-3.24805 -1.62695,0.0371 -1.83008,-1.24219 -1.26562,6.17578 -1.98242,-3.01562 -0.83594,2.31836 1.40234,3.98828 -0.87109,6.7793 -0.3418,0.97461 -1.02539,3 -4.89062,1.28711 -1.29883,-1.82422 1.16797,-1.16992 2.58007,-0.28321 -3.21874,-2.25976 0.68945,-0.98047 3.21289,0.23047 1.80078,-6.48829 -1.35156,1.20508 -1.44532,-0.58789 1.35157,-6.66211 -0.25391,-1.78711 -1.85937,1.05274 -2.23243,7.10547 -0.72656,-2.93555 0.84375,-5.97266 -0.87109,-1.48828 -2.63867,-0.27539 -3.0586,-2.62304 -0.19726,0.29687 -2.7461,4.26563 -0.0586,3.64648 0.9668,0.69141 4.32422,-2.46289 0.8789,0.40624 -0.17383,2.54297 -2.55078,3.25586 2.07813,2.0918 0.88672,5.53711 0.0644,7.7168 0.83398,2.02734 26.09571,0 -0.16993,-0.36133 -0.58007,-4.15625 0.42773,-1.67969 -0.94336,-1.91015 1.91016,-5.66797 0.625,-6.53125 2.31836,-1.12695 1.46679,-3.69727 0.92383,-9.18555 0.40625,-0.66797 2.86328,-4.64257 -0.16211,-0.37305 -2.38476,0 -0.38867,0.71484 -0.66211,-0.71484 -2.78321,0 -0.95898,2.76562 -0.625,-0.63281 -0.0977,-2.13281 -6.69726,0 z m 20.66797,0 -1.12696,0.18555 -1.73047,3.92383 -1.85156,2.01953 -1.25781,4.93359 -1.44531,1.5332 2.40429,4.30078 0.18164,1.51954 -0.98046,1.48242 2.31054,4.13476 0.95899,3.81446 1.875,-5.26172 2.04882,-0.76953 -1.94726,-2.19532 1.25586,-3.99609 -0.0644,-2.46289 3.35546,-5.01367 -0.48632,-1.83789 -2.86329,-0.3125 -0.94335,-1.91016 1.10351,-2.52148 -0.62109,-1.56641 -0.17578,0 z m 225.15039,0 0.20898,2.52539 1.59961,0.12891 1.87891,-2.6543 -3.6875,0 z m 45.27929,0 0.19532,2.64062 2.37695,2.31055 1.82226,-0.61719 0.79297,-2.57226 -0.0508,-1.76172 -5.13672,0 z m 12.37696,0 0.40429,1.44727 -0.043,4.88867 1.41601,1.59961 1.01758,2.89843 0.73437,-0.27539 0.44922,-1.69336 1.82422,1.69336 0,-1.16992 0,-9.38867 -5.80273,0 z m -335.8418,1.14258 0.98828,8.81445 1.48828,-0.86523 -0.12304,-5.16602 -2.35352,-2.7832 z m 206.13477,0 -1.94727,0.76367 -2.32422,2.86914 -2.14453,0.45899 -1.43945,5.16601 0.25586,1.67773 2.58593,-0.24609 0.74219,-2.31055 3.13086,-0.98046 1.35938,1.30859 0.5664,-1.79492 -0.3125,-2.23047 -1.30078,-1.70117 1.13281,-1.70703 -0.30468,-1.27149 0,-0.002 z m 150.36132,1.75976 -1.48242,2.375 -2.62304,-1.73632 -0.0371,1.91796 5.74023,5.82032 -1.11914,1.07422 -1.41602,-0.0996 -0.52343,1.06054 1.99804,0.79883 2.00586,-1.27148 1.37305,-2.34571 -0.0664,-2.57226 -1.74414,-3.56836 -2.10547,-1.45313 z m -359.74414,1.38672 -1.51172,0.0527 -1.27148,3.17382 0.0801,4.48438 -2.62305,6.90234 -0.10156,7.30274 -0.61133,1.25 -1.61328,-1.06055 -1.10352,1.59766 -0.24804,3.34179 -2.41797,-6.0957 -1.01758,3.6836 0.5,3.86523 -1.28516,2.24609 -4.12695,-1.43164 -1.2207,3.72656 L 115,190 l 27.95312,0 1.73633,-3.62891 -4.38086,-7.43164 -1.31445,1.4375 -2.08594,-9.38672 -3.92382,-2.21679 0.78515,-3.9375 -0.30469,-1.94141 -0.64648,-4.02539 0.15234,-4.57617 0,-0.004 z m 21.98633,0.22656 0.20313,7.48438 2.09961,2.89258 0.80078,-3.93946 -3.10352,-6.4375 z m 168.01758,2.36915 -0.39844,1.41015 2.94141,5.36133 0.26953,4.52734 1.2207,1.42383 -1.42383,3.13867 0.81446,2.84766 3.66797,4.12891 0.26953,-3.21289 -1.08203,-1.53321 1.29297,-3.02929 -0.3125,-3.17579 1.80078,-2.40429 -2.01172,-2.49219 -0.0723,-4.2207 -3.61133,-2.76953 -3.36523,0 z m 92.81641,0.98828 -1.5254,0.14453 -1.11914,1.57031 -0.92382,3.625 0.22656,4.66602 -0.93164,2.81836 1.62109,0.95898 0.95117,-1.20703 0.80078,-5.4043 2.7754,0.0664 1.04492,-0.91602 1.14844,1.00977 0.75585,-3.24024 -0.36328,-1.69336 -2.89843,-0.91406 -1.5625,-1.48437 z m -58.35352,2.70312 -3.63281,4.14063 4.3457,8.99609 2.87695,-5.49219 -1.08203,-4.38281 -1.5625,-0.52344 -0.94531,-2.73828 z m 143.03125,4.12695 -4.89063,0.79297 -0.19531,1.68555 0.71094,0.79102 2.79102,-0.0664 2.43359,-2.31055 -0.84961,-0.89258 z m -70.91797,0.96094 -1.11719,0.41992 -1.8164,0.69727 -0.80664,-0.13672 -1.34375,-0.23242 -1.46875,1.51953 0.18164,3.13867 -1.25781,2.64453 -1.37891,-0.11523 -1.38086,-3.76367 -2.32617,0.95898 -0.29688,1.45313 2.01953,3.32031 1.06055,7.23828 -0.99609,1.44531 -0.72657,0.37891 -1.62695,0.8418 2.01367,2.38281 -0.48828,2.08594 0.0332,0.0586 22.76172,0 -0.99023,-2.92969 -0.0508,-4.2207 -2.73242,-5.89258 -3.81446,-2.83398 -1.30078,-3.47461 -1.42969,-1.4668 0.8711,-1.48242 -1.5918,-2.03516 z m -333.230468,3.01367 1.824219,6.61133 1.677735,1.61328 0.117187,-3.22656 -1.132812,-4.49609 -2.486329,-0.50196 z m 215.574218,1.27149 -0.29101,1.44531 2.52929,3.13281 2.91407,0.74805 -0.61133,3.13867 0.60351,1.72852 -2.99414,1.81054 1.19141,3.58204 -0.48633,1.14843 -2.88477,-0.0723 -0.5664,1.79492 0.24805,1.59375 25.74218,0 -3.85742,-2.66797 -0.83594,0.25977 -1.37304,-4.97071 -4.76758,4.90625 0.58203,-4.77539 1.00977,-0.65234 -0.24805,-2.75391 -0.61719,-0.50195 -3.81445,-3.06641 -2.00586,-2.63672 -4.53321,-2.7832 -4.93359,-0.4082 z m -198.89062,0.68359 -0.79297,2.98633 1.09765,4.76563 0.74024,-0.44336 0.17578,-3.75586 -1.2207,-3.55274 z m 383.45312,0.25977 -2.97851,0.38476 0.16015,1.73047 2.05664,1.87305 1.08985,3.85156 1.45312,-1.83008 0.25391,-2.7832 -2.03516,-3.22656 z m -302.16211,0.25976 -5.45703,6.32227 1.74414,2.97851 3.71289,-9.30078 z m 114.91797,5.66797 -1.93945,0.76367 -0.34961,2.9336 1.22851,8.05078 0.67578,-3.68359 -0.40624,-3.30469 1.77343,-3.24219 -0.98242,-1.51758 z m 49.45313,0.23047 -2.82032,2.22266 0.38672,4.40429 1.94727,-1.71484 0.95898,-4.04101 -0.47265,-0.8711 z m 58.22851,0.64649 0,0.0137 -3.10156,0.68359 0,4.61524 2.20898,-0.0371 1.20508,-3.19141 -0.3125,-2.08398 z m -5.37695,0.3125 -2.84766,4.26562 1.16211,2.76758 1.11914,0.32812 0.56641,-7.36132 z m -114.55469,1.5664 -3.02148,4.91992 2.53515,2.05469 2.56446,-0.13672 0.56054,-0.86523 -2.63867,-5.97266 z m -194.33594,0.16992 -0.92187,1.07618 -1.35156,7.10546 -0.814458,2.07227 3.421878,0 0.64844,-4.41992 -0.30665,-4.64258 -0.67578,-1.19141 z m 84.20508,2.15235 -1.98242,0.0996 -1.05469,2.1289 -0.0351,3.37891 0.72656,1.74414 -0.47461,0.75 3.16211,0 -0.10156,-2.41211 -0.24024,-5.68945 z m 256.7793,0.0352 -0.70508,5.57227 -1.16211,0.87891 0.27539,1.61523 4.11328,0 -0.0645,-2.75586 -1.35156,-4.85352 -1.10547,-0.45703 z m -331.42969,0.32618 -1.48828,0.99609 -2.06445,-0.18164 -3.54493,5.95703 -0.16406,0.96875 4.58008,0 0.26367,-0.39453 0.0644,0.39453 2.58204,0 -0.0234,-1.07812 -1.9707,-2.1875 2.52929,-1.91797 -0.76367,-2.55664 z m 192.44727,1.9414 -2.17383,5.79883 3.02148,0 0.19922,-1.9707 -1.04687,-3.82813 z m 102.5,2.96289 -1.16993,1.97071 0.0703,0.86523 2.98242,0 -0.0215,-0.082 -1.86132,-2.75391 z m 70.47265,0.0449 -0.73242,1.22071 0.36524,1.57031 0.6289,0 0,-2.36133 -0.26172,-0.42969 z m -64.32422,0.86524 -1.91796,1.43164 0.002,0.49414 2.15234,0 -0.23633,-1.92578 z M 230,285.94727 l -0.89453,0.60742 -0.8125,-0.13086 -1.55469,-0.23828 -0.6543,1.66406 0.85743,2.57227 -0.90821,0.92968 -1.61328,0 -0.32617,1.83985 2.31641,4.83789 1.5332,-2.32422 0.34961,0.18945 1.49609,0.78516 0.21094,0.35742 0,-11.08984 z m -9.41016,16.6914 -4.27148,0.13086 -0.19727,2.67383 0.64844,1.4668 1.50977,-0.16602 4.26562,-2.09961 -1.95508,-2.00586 z m 4.38282,2.8711 -3.85938,5.60156 -2.04883,1.83789 1.45313,1.32226 5.54492,-0.19726 0.74805,-8.55078 -1.83789,0 0,-0.0137 z M 230,321.94336 l -0.13867,0.0371 -1.56836,4.54101 -0.83594,2.39844 0.83594,0.32813 1.70703,0.6875 0,-7.99219 z"
       style="fill:#000000"
       inkscape:connector-curvature="0" />
    <path
       id="rect4"
       transform="scale(0.5,0.5)"
       d="m 477.09375,-50 -1.27148,2.492188 -0.37891,4.693359 0.58203,1.853515 0.76367,-0.40039 1.07422,-3.080078 0,-1.089844 0,-4.324219 L 477.09375,-50 Z m 11.26953,56.828125 -1.41797,0.71875 -0.42773,2.4121094 1.47461,2.5351566 2.26758,0.865234 3.54492,-0.632813 1.80273,-1.220703 1.52539,-2.9199215 -1.14843,-1.25 -2.94141,1.4609375 -4.67969,-1.96875 z m 10.38281,13.818359 -4.79492,0.894532 -1.96875,1.65625 0.31836,2.660156 2.59375,4.351562 4.375,0.13086 3.71289,2.585937 1.76563,-2.166015 -0.6543,-4.757813 -2.8418,-4.412109 -2.50586,-0.94336 z m -14.77148,0.357422 -1.43945,4.134766 1.48242,1.859375 2.26758,0.183594 0.52343,-1.0625 -2.06445,-1.873047 -0.0645,-2.572266 -0.70508,-0.669922 z m -31.46094,1.105469 -1.88281,1.976563 -2.99414,-1.337891 -0.74024,1.234375 1.39454,2.820312 2.12109,0.761719 2.09375,-0.857422 0.88672,-3.224609 -0.87891,-1.373047 z m 39.54102,15.933594 -2.04883,1.125 -0.61914,1.236328 1.3457,3.931641 1.42383,0.777343 2.0918,-0.878906 1.20703,-3.386719 -3.40039,-2.804687 z m 12.27929,0.3125 -2.30273,0.226562 0.043,1.765625 3.41406,1.431641 1.54102,1.576172 0.60351,-1.365235 -1.17773,-2.1875 -2.1211,-1.445312 0,-0.002 z m -5.49414,4.482422 -2.33789,2.27539 -1.20703,3.392578 1.25781,1.220703 2.65821,-0.980468 1.57617,1.009765 3.61133,-0.929687 0.40039,-1.169922 -4.19336,-4.802734 -1.76563,0 0,-0.01563 z m -34.19336,5.777343 -0.38476,5.638672 1.99023,0.892578 1.34571,2.267578 0.89257,-3.371093 1.19141,-1.009766 -2.50586,-4.105469 -2.5293,-0.3125 z m 38.00196,3.865235 -2.91406,0.916015 -0.71876,4.242188 -2.33203,0.101562 -0.64843,3.958985 3.54687,3.71289 2.17188,4.025391 2.07031,1.191406 0.37109,-5.673828 3.59766,-8.958984 -1.5918,-1.15625 -1.83789,0.261718 -1.71484,-2.621093 z m -41.15625,4.267578 -0.82031,0.949219 1.58398,5.841796 2.02734,1.439454 -2.45508,0.929687 -0.61132,1.103516 2.05664,3.082031 -1.875,1.023438 1.28711,2.652343 -0.87305,1.351563 1.78125,2.478515 0.94336,-0.09375 3.48047,-1.714843 1.01758,-6.060547 -1.2793,-1.837891 0.51758,-1.271484 -1.46875,-3.109375 0.10156,-2.558594 -2.83398,-0.638672 -2.58008,-3.566406 z m -172.00586,7.429687 -1.64258,0.146485 -3.16797,3.013672 0.19727,1.388671 1.67773,1.47461 0.17383,2.46289 2.80469,-1.023437 -0.21094,-4.113281 0.98828,-2.404297 -0.82031,-0.945313 z m 196.55078,12.525391 0,0.002 -1.40234,2.216797 2.52929,3.945313 1.39453,0.646484 2.84961,-2.666016 3.33399,-1.142578 0.0801,-1.662109 -1.09766,-0.97461 -7.6875,-0.365234 z m -16.79102,3.097656 0,0.01367 -2.24414,2.041016 -0.56836,2.617187 0.41407,1.292969 1.6289,0 0.23828,1.808594 2.64649,-1.583985 -0.49414,-6.044922 -1.6211,-0.144531 z m 8.61719,1.990235 -4.1914,5.3125 -0.45899,2.636718 0.6543,3.095704 3.99609,4.300781 0,-6.488281 0,-0.384766 0,-8.472656 z m 12.55664,3.082031 -1.35937,3.173828 -1.32227,1.234375 1.08203,3.03125 -0.55859,5.166016 1.14062,0.566406 1.36524,-0.972656 0.95898,1.560546 -0.4707,2.820308 1.66992,0.18165 2.17383,-1.693364 1.1543,-8.035156 -1.21289,-2.462891 -4.6211,-4.570312 z m -193.26758,0.878906 -2.42773,1.757813 -0.9375,2.964843 0.5957,2.820313 1.78125,-0.261719 0.12305,-2.964844 1.35937,-2.630859 -0.49414,-1.685547 z m 124.82227,0.107422 -0.85156,0.259766 -1.54688,3.947265 -0.10937,3.632813 1.31445,0.630859 1.44727,-5.847656 -0.25391,-2.623047 z m -291.72266,2.966797 -2.22265,7.509766 0.78515,1.33789 2.86914,-3.894531 -0.043,-4.869141 -1.38867,-0.08398 z m 172.73438,2.605469 -1.74414,4.855468 2.30469,2.134766 0.32617,-1.837891 1.38086,-1.794922 -1.14063,-3.044921 -1.12695,-0.3125 z m 79.33008,0.421875 -0.28321,5.101562 -1.75781,0.115234 -0.66992,1.640626 2.33984,1.765622 2.13672,-0.33398 0.77735,2.17187 1.64257,0.81446 1.97657,-2.78321 -2.65235,-3.966794 -1.32226,-4.294922 -2.1875,-0.230468 z m 59.24023,0.355468 0,0.002 -1.39648,1.794921 1.54101,7.054695 3.18945,-1.205085 -2.07812,-7.41211 -1.25586,-0.234375 z m -18.40625,4.572266 -1.93945,0.617188 -0.42774,1.548828 1.00196,6.822264 5.5,4.2207 -1.41016,-6.24023 -2.44141,-2.72461 1.78125,-1.185546 -2.06445,-3.058594 z M 260,100.76367 l 0,6.32617 1.31641,-1.67578 -0.97461,-4.60742 -0.3418,-0.043 z m 121.35742,0.68945 -0.91601,2.68946 0.74804,1.48047 3.74219,0.76367 0.45898,-0.86524 -4.0332,-4.06836 z m 104.32422,1.77344 -1.82422,1.08985 -0.8125,2.90625 0.68946,2.03515 2.46289,-0.68359 0.42187,-2.41211 -0.9375,-2.93555 z m 13.73242,0.11524 -1.78711,0.53711 -1.41601,3.56836 -0.29102,2.52734 1.49024,1.98437 1.125,-1.74414 1.24218,-5.31054 -0.36328,-1.5625 z m -339.69726,2.54297 -0.26953,2.39843 -1.41602,2.20899 -0.0234,3.39258 1.55469,1.57617 0.37695,4.53906 0.0606,0 0,-14.04883 -0.2832,-0.0664 z m 103.46679,1.45312 -3.18359,3.90234 0,5.61719 0.7793,-0.0234 2.6582,-3.76367 0.37109,-5.08789 -0.625,-0.64453 z m 237.91602,4.21484 -1.00195,0.35743 -0.38477,2.67382 1.64649,5.41602 1.0332,0 -0.36133,-6.32422 -0.93164,-2.12305 z m -42.04102,0.39063 -0.25976,2.92773 -1.70117,1.46875 -0.10938,1.74219 1.46094,1.35938 2.79687,-0.0742 0.87305,-1.33008 -0.7207,-2.57813 -2.33985,-3.51562 z m -304.45117,1.13281 0,0.008 -1.21289,6.7129 0.0234,0.20312 4.58594,0 -0.17774,-1.41602 -1.75781,-5.02148 -1.46094,-0.48633 z m 320.03711,2.55078 -1.28515,0.0371 0.35742,4.33594 3.24609,0 -2.31836,-4.37109 0,-0.002 z m -28.60547,1.64258 -1.49609,0.83594 -0.35352,1.89453 4.61719,0 -0.82031,-1.57617 -1.94727,-1.1543 z m 50.20703,1.20508 -1.28515,0.0371 -0.52149,1.48828 3.40039,0 -1.59375,-1.50977 0,-0.0156 z M 63.919922,220 l 1.802734,4.16406 0.88086,-4.16406 -2.683594,0 z m 46.724608,0 0.041,8.69336 -2.01172,3.63281 0.31055,1.38867 1.57812,0.37305 1.2793,4.11914 2.0039,2.74609 1.41016,7.09961 0.91602,1.08985 2.92773,-0.37305 2.31836,1.96875 6.76367,-1.80859 3.73438,-2.54297 0.54492,-1.8086 -0.55078,-3.33593 -2.05664,-3.27735 0.41406,-0.86328 0.63281,-1.28711 -1.75977,-3.9082 2.97266,-2.92773 -0.80664,-4.19336 -1.69336,-1.33594 L 128,223.33203 126.85938,220 l -16.21485,0 z m 21.39453,0 0.92383,2.33008 1.97656,-1.19141 0.52344,0.48633 -0.61133,7.62305 1.2793,1.95507 4.97656,4.00977 0.95899,-1.35156 -1.16993,-3.95899 2.66016,-0.14648 0.9375,7.1875 -0.5957,3.2832 1.2207,0.45703 3.10938,-4.11914 0.0508,-5.66601 -1.04688,-3.01563 2.59375,-5.68359 -0.0723,-2.19922 -17.71485,0 z m 21.57617,0 0.5586,2.5957 -0.35742,5.23047 3.1914,7.91992 0.8711,2.17969 -0.625,1.51953 1.51171,4.01758 -0.15234,2.41992 L 160,247.41016 160,220 l -6.38477,0 z M 260,220 l 0,2.14062 0.57812,-0.9707 1.56836,0.40039 0.69922,3.90039 4.08985,2.5586 2.19336,3.8789 4.05468,1.875 3.27735,-3.2539 0.0664,-4.46875 1.22657,-2.63867 1.83203,-1.74415 L 278.78711,220 260,220 Z m 22.84375,0 1.82031,1.69336 0.60352,-0.27539 0.49414,-0.21094 0.48633,-1.20703 -3.4043,0 z m 16.21875,0 -0.043,0.5332 -2.03515,3.45118 -1.875,0.24414 -1.23438,3.4375 -1.01758,2.82031 2.10742,4.69336 4.23633,-5.54492 0.50781,-4.25 2.23829,-5.38477 -2.88477,0 z m 7.44531,0 0.17774,0.15234 0.11914,-0.15234 -0.29688,0 z m 16.32227,0 0.51562,1.96875 2.65235,-1.96875 -3.16797,0 z m 73.81054,0 0.0977,0.34766 0.42774,-0.34766 -0.5254,0 z m 2.65821,0 -0.64063,3.52344 0.20313,0.53711 0.84179,2.21679 3.22657,-2.68164 3.24023,0 1.25781,-0.87109 0.80665,-2.72461 -8.93555,0 z m 48.01172,0 -0.10157,1.08203 1.24219,3.88086 2.1211,2.39063 -0.64649,-4.85352 -1.22266,-2.5 -1.39257,0 z m -128.23633,1.91797 -1.03906,5.7832 0.41992,2.2461 3.61914,-5.09961 -1.03906,-1.91993 -1.96094,-1.00976 z m 14.45898,3.76367 -2.42773,2.83398 -2.9707,6.41602 1.25,1.15625 2.81054,-1.28711 2.16602,-6.41601 -0.82813,-2.70313 z m -29.99414,4.38281 -2.01367,3.32032 2.74023,4.10546 1.4375,-0.4375 -0.94335,-4.62695 -1.22071,-2.36133 z m 41.71289,0.95899 -1.95312,1.83789 2.47656,4.33789 1.91797,-3.47266 -2.44141,-2.70312 z m -193.54297,0.24414 -1.11132,0.63281 -0.49414,4.38086 0.49414,4.82617 1.16992,-0.10156 1.59765,-5.02734 -0.47851,-3.9961 -1.17774,-0.71289 0,-0.002 z m 261.11719,0.0918 0,0.002 -1.64258,4.875 -1.75,-0.83594 -0.80078,0.80078 2.8711,4.83789 3.77148,-3.42187 -1.52734,-6.21875 -0.92188,-0.0391 z m -75.14453,0.13085 0,0.0156 -2.23047,0.3125 -2.15039,6.27148 -1.5332,1.24219 -3.33594,-1.09765 -0.32031,1.71484 1.06836,6.17578 0.13867,0 6.47461,-4.78711 2.39648,0.27539 0.77149,-4.48437 1.68554,-1.48243 -2.96484,-4.15625 z m -20.69336,2.00586 -2.27539,2.60938 -1.40234,3.95312 -2.69532,1.32227 0,0.94531 2.07813,1.00977 3.48828,1.67773 -0.0508,-1.11133 -0.0801,-1.6289 2.00586,-3.18946 -0.82031,-2.79687 1.19726,-1.30859 -1.44531,-1.44532 0,-0.0371 z m 61.31055,2.28321 -4.17774,2.94922 0.0508,1.49609 -2.51368,1.59961 -0.50976,1.27148 1.91211,1.41602 2.10742,-2.08399 0.7832,0.12891 0.75586,-1.37305 5.17383,0.21875 0.45117,-1.83007 -1.12695,-1.13282 -0.12305,-1.79492 -2.7832,-0.86523 z m -243.60742,2.21484 -1.40821,0.18945 1.44532,5.75586 1.41015,0.76172 1.05274,-3.22461 -0.55274,-1.30078 -1.94726,-2.17969 0,-0.002 z m 154.6289,1.9043 -0.002,0.0137 -1.18359,0.2207 -0.6543,2.60157 0.43555,4.14062 -1.64063,2.16602 0.10938,2.86914 0.0273,0.81445 2.39844,1.20508 1.30859,4.54297 -3.56836,1.85937 -0.91601,-0.95898 -0.69727,-2.96485 -1.69922,-1.22851 0.35547,4.79687 2.23047,5.52149 -0.13086,3.07422 -2.69531,5.26757 0.0879,2.17969 -0.77149,0.68164 0.17578,4.35352 1.84571,0.98047 0.76172,1.18554 0.89453,1.38672 2.41992,0 -0.125,2.94922 -0.26758,6.19141 1.14844,1.00976 1.37305,-3.85156 1.40234,-0.17383 1.72852,0.95899 -1.11915,4.5625 1.04688,1.92578 1.17773,0.74804 1.23438,-1.69921 1.5039,-0.0391 0.82813,-2.16406 -0.86523,-2.44922 0.35742,-0.84179 1.56836,-3.71485 -0.55078,-2.12109 -2.17383,-2.11328 -0.10157,-2.05664 1.99805,-8.06446 2.66016,-0.0937 4.09765,-3.4082 -2.34765,-2.54297 1.47656,-2.73828 -1.18555,-6.5625 1.07618,-5.09961 -0.89454,-5.03516 -2.75976,-3.03125 -1.8457,-0.0371 -1.49805,-3.89453 -2.0332,-0.8125 -0.88086,-0.14648 -0.36914,1.36719 2.23046,2.67382 -2.10742,8.99415 2.37696,7.16406 -1.9043,6.32226 -1.14844,-0.0527 0.11719,-8.77735 -1.39649,-3.76367 0.98829,-4.43164 0.17382,-5.39843 -2.51367,-3.125 -1.56836,-1.33594 z m 11.39258,1.41601 -0.0371,1.14063 3.90234,1.16992 0.74024,1.49023 -0.76953,1.64258 1.91797,5.17969 3.82226,-3.97461 -1.62109,-3.79297 -3.07227,-2.0332 -0.75586,-0.75586 -4.12695,-0.0664 z m 57.26172,2.80664 -2.6875,6.42969 -0.34961,1.4668 1.25781,0.0684 1.24219,-1.15625 2.59375,-4.69336 -2.05664,-2.11524 z m 34.81836,3.31836 0,0.0156 -0.8418,2.17187 -1.93945,0.74805 -1.30078,3.03125 0.76953,3.05859 -0.61719,2.25196 0.94336,1.64258 1.95508,1.00976 2.03516,5.92188 2.01171,3.32031 5.2168,0.76367 0.9668,-1.32227 1.35937,-6.28515 -1.63476,-2.57227 -0.56055,-2.68945 -0.52344,-2.52734 -2.51953,-2.04883 0.38477,-3.06641 -0.61719,-0.63281 -3.18359,0.53711 -0.17383,-3.29102 -1.73047,-0.0371 z m -40.62305,13.05078 -2.92773,1.27149 -1.98438,-0.73438 -1.27148,4.78907 1.83789,0.0508 6.25,-4.91797 -1.9043,-0.45703 0,-0.002 z m 4.13477,9.64844 -1.875,0.22656 -4.48242,2.76954 -0.47266,0.99414 0.9375,0.85156 2.64453,0.0371 1.01758,-0.77735 0.63086,2.4043 6.11914,0.90039 4.02539,3.24219 1.75,1.40234 4.10547,-0.66992 0.21875,-3.61719 1.45312,-1.51172 -0.32812,-3.85156 -2.36719,3.26367 -5.18164,-0.0684 -2.39062,1.6289 -1.81641,-5.86328 -1.59766,-0.14648 -1.30859,2.23046 -0.8418,-0.68164 -0.24023,-2.75586 0,-0.008 z m 22.42969,6.11133 -1.38868,0.0371 -2.80468,2.23047 -0.29688,2.38476 -1.5332,1.23438 1.72851,1.92578 3.28516,0.42188 1.98242,1.6914 1.05469,-2.0039 -0.16016,-2.45704 -0.88672,-1.23437 1.19922,-2.23828 -2.17968,-1.98438 0,-0.008 z M 260,278.57812 l 0,41.44922 0.83008,0.60352 -0.83008,3.99219 0,2.89453 0.0742,0.57617 1.67773,2.30273 -0.48633,3.3711 0.52344,1.5625 1.50391,4.52539 1.59765,0.11523 0.63282,-4.64258 0.13867,-1.06054 7.01758,-0.0664 0.0879,-3.64844 1.36719,-2.88476 1.1914,0.60351 0.68164,4.0254 -0.34765,1.98437 0.70507,1.04492 0.19532,0.30664 1.73633,2.59375 -0.38477,4.26367 -0.70508,1.11329 -2.05664,-0.0645 -0.39844,1.41797 2.0625,3.30469 6.30664,-7.07031 -1.11914,-2.21485 1.06836,-1.32226 1.53321,-0.29102 0.56054,-2.03516 0,-0.71874 3.6543,-0.25977 1.00976,-3.30664 -3.27734,-3.37109 -0.82031,0.13085 -2.45508,-6.5039 -0.26172,-2.62305 1.26367,-3.55273 0.58789,-5.14453 -1.51757,-4.32227 2.6875,-2.86328 -0.47266,-1.83789 -2.50586,-0.2832 0.13086,-1.07618 0.0566,-0.51562 2.46484,-1.35156 0.10743,-0.92969 -1.66407,-1.4961 -0.27539,-1.5332 0.74805,-2.44922 2.12109,-1.41601 -0.55078,-1.16992 -1.28711,-2.79102 -2.16406,-0.21094 -0.53906,-0.47265 -0.82031,-0.69727 -0.47266,1.69336 -0.006,0 -0.9082,3.21094 -1.49024,0.0371 -0.50781,-0.9961 -0.006,-0.0371 -1.35937,-2.6875 -1.54688,4.35157 -1.06836,-1.66407 -0.24805,-4.76562 -2.57812,-3.53906 -2.97266,3.71289 -1.65625,0.40625 -3.66992,-2.08399 L 260,278.57812 Z m 98.18555,1.62305 0,0.002 -2.44727,0.26758 0.20899,1.11914 4.25976,2.88477 2.56445,0.71094 1.33594,-0.58008 -0.29101,-1.41797 -5.63086,-2.98633 z m -13.61524,0.1543 0.14453,3.54492 -1.14062,1.8457 -1.875,1.16993 2.68164,1.67968 7.53516,-2.25976 5.93554,0.44922 -6.31445,-5.92774 -6.9668,-0.50195 z m -41.59179,2.84765 -0.33399,1.84571 1.30859,2.52148 2.09961,0.74805 0.77735,3.10937 3.16797,-4.35937 -0.45117,-1.97656 -2.82618,-1.41602 -1.72851,0.94531 -2.01367,-1.41797 z m 67.07226,0.91602 -2.96289,2.47852 -5.38477,1.65625 -0.56054,0.86328 0.56054,1.99219 1.93165,-1.71485 2.77734,0.87891 1.35742,-0.71289 1.54102,0.51562 1.51172,-2.84765 -0.77149,-3.10938 z m -56.17969,1.43164 -0.61132,1.23438 0.26171,2.62304 -1.34375,2.62305 0.85743,3.38672 -0.41407,1.56836 1.30079,0.61914 1.14843,-1.83985 1.43164,1.46094 1.29297,-2.09961 0.56641,-8.5664 -0.94531,-0.82813 -1.02344,0.9082 -2.52149,-1.08984 z m 60.29297,0.74805 -0.63867,2.33203 1.66406,2.45703 2.70117,0.45703 2.2461,-0.42187 -2.48438,-3.27735 -2.2539,-0.39258 -1.23438,-1.15429 z m 58.98438,4.86719 -2.78906,2.90625 -2.71876,0.61914 -0.50781,1.25 4.98438,3.45703 1.93359,-3.47266 -0.3418,-1.82422 0.92969,-1.04492 -0.18164,-1.25 -1.30859,-0.64062 z m -66.99219,0.27539 -2.09961,2.09375 -4.22852,0.63086 -1.61328,-0.94336 -0.16015,2.28125 1.25781,1.02539 3.99609,-0.6836 2.93555,0.50196 0.48633,-3.04493 -0.57422,-1.86132 z m -23.82422,4.5332 0,0.002 -1.5918,3.66211 -6.65625,6.4668 -4.18359,8.92969 -0.46484,0.99609 -5.42188,6.82813 1.67969,2.31054 10.12891,-2.91211 3.30468,0.27539 4.01953,-5.68945 0.0352,-8.43555 0,-0.35742 0.77734,-3.66992 3.06641,-6.26953 -4.69336,-2.13672 z m 21.68164,2.57422 -4.76758,0.40625 -2.11328,2.2168 -2.14453,-1.30079 -6.18945,1.66407 -2.62305,3.61132 -0.0664,2.36133 -0.0293,1.29297 -1.05274,3.89453 1.64258,1.61914 -1.3164,2.35547 -0.25391,3.07227 -2.26758,5.45117 0.7207,2.54883 1.53321,0.66992 2.23633,-0.42188 3.06054,-4.38085 1.22657,-0.32813 0.91601,-0.25977 -0.0234,-4.60742 4.19336,-2.26758 1.54688,-2.15039 1.65039,-2.62304 0.0215,-0.0371 0.20508,-4.11914 -0.66992,-1.45313 2.92187,-2.20898 -0.80664,-1.91211 2.86914,-1.80078 -0.41992,-1.29297 z m 5.17969,1.95312 -3.9668,3.25586 -2.89062,3.85157 2.04101,2.12109 -2.10742,2.20898 -0.24609,0.40625 -5.79883,9.54883 -1.48242,3.68359 3.08789,2.00391 0.11523,3.81641 3.39453,2.27344 3.73438,-3.24024 1.5332,-0.27539 0.0293,-3.10937 2.67383,-3.06641 0.58203,3.89453 1.89648,1.25586 3.9961,-0.66797 1.78711,-2.41211 1.77343,-0.37695 -0.2539,-2.60156 3.3125,-7.30274 -2.33985,-4.33008 -4.5039,0.98828 -0.55274,-5.77734 1.85157,-2.94922 -0.13086,-0.82812 -2.97852,-1.04688 -1.14062,1.83789 -2.92188,-0.63281 -0.49414,-2.52734 0,-0.002 z m -44.05274,7.23047 0,0.008 -4.09765,6.34961 1.01758,2.07032 3.03711,-4.23438 3.00781,-0.0371 1.17578,-2.2539 -0.33398,-1.00977 -3.80665,-0.89258 z m 110.68946,2.48438 -2.32422,0.13086 0.5,3.33593 2.5,3.01563 1.85937,-1.9707 -2.53515,-4.51172 z m -45.95703,1.93359 -3.39258,3.22656 -0.51563,1.40235 0.41407,1.29297 4.07617,-2.28907 0.24609,-1.98437 -0.82812,-1.64844 z m 69.73047,3.99414 0,0.002 -1.85938,5.63868 0.19531,1.12695 1.0625,-0.2207 1.91016,-4.13477 -0.29102,-2.23633 -1.01757,-0.17578 z m -142.52149,8.00195 -3.42187,3.63282 -2.0625,0.88086 -0.61133,1.23437 1.27929,2.80469 4.35938,-3.75 -0.29883,5.36328 -8.19531,-0.0937 -3.27734,-0.0371 0.15234,1.12695 0.26953,2.04883 -1.43945,1.5332 2.00586,3.43555 1.62109,0.81445 1.61914,-1.08984 1.55469,1.48242 1.07617,-0.35742 1.70703,-3.79883 5,-4.07031 0.35547,-0.42773 0.43555,0.42773 3.29883,4.91211 1.59961,1.08203 -1.75196,1.20703 0.90039,1.08985 3.02344,0.63281 1.35937,-0.71289 0.46485,-1.96094 2.4043,0 3.79296,-5.37109 3.81446,3.25586 2.41211,1.11132 0.84961,0.38477 1.35156,-0.71875 0.3125,-4.50391 0.32812,-0.4082 0.6543,-0.96484 -4.59961,-4.70899 -2.31055,-0.92969 -2.1582,0.71876 -1.35156,-1.16993 -7.6582,-0.32812 -1.77344,2.28125 -1.62695,-0.8125 -1.70118,-4.07617 -3.76367,-1.16993 z m -14.06641,19.74219 -1.73632,2.96485 0.47851,2.78906 0.73438,1.48242 2.25195,-3.08008 -0.73242,-3.84375 -0.9961,-0.3125 z m 157.66993,11.78711 0.002,0.0137 -1.01758,0.76172 -1.14062,5.36328 0.58789,2.67383 1.78125,1.26367 0.36328,1.69922 0.90039,2.8711 6.77148,0.92382 4.97071,4.28516 -1.08203,4.00391 2.40429,0 1.02344,2.77539 3.96875,-2.28125 -0.86523,-3.14649 0.90039,-2.54297 -2.84766,-1.99804 -1.51172,-2.57813 -4.75976,-1.40234 -0.0371,-1.49805 1.12695,-0.74805 7.31641,-0.58789 1.2871,-1.9414 -1.73632,-2.62305 -5.03516,0.73438 -2.65234,-2.63672 -4.07032,0.35742 -3.50195,-3.18945 -3.14648,-0.55274 z m -6.15235,8.67578 -2.87109,4.50977 -4.35156,0.87305 -1.00196,0.63085 -0.83007,2.98047 -3.24024,1.06055 4.66602,7.5918 2.80468,2.39062 5.41211,2.59375 1.36719,2.82031 4.21289,0.19727 1.08399,-1.30859 -0.6836,-1.86719 -2.15039,-2.00586 -1.58398,-3.81445 0.60156,-2.07032 -0.41406,-5.76171 -1.27735,-4.43165 -0.66211,-3.91015 -1.08203,-0.47852 z m 9.89649,8.00586 -4.25781,1.00196 -0.47266,7.36718 0.95117,2.47852 1.40234,0.66797 1.57032,-1.50391 -0.53125,-3.07422 1.33008,-2.33203 1.08984,3.17578 2.04101,-2.49219 3.42383,-0.74804 -0.49414,-1.57617 -2.98633,-2.68946 -3.0664,-0.27539 z"
       style="fill:#000000;fill-opacity:1"
       inkscape:connector-curvature="0" />
  </g>
</svg>
